# xmcd
#
# Track frame offsets:
#	150
#	22372
#	40312
#	59377
#	75492
#	99890
#	124377
#	141732
#	184402
#	215950
#	237962
#
# Disc length: 3628 seconds
#
# Revision: 4
# Processed by: cddbd v1.5.2PL0 Copyright (c) Steve Scherf et al.
# Submitted via: EZCDAudioConverter 4.0.3.1
#
DISCID=ac0e2a0b
DTITLE=John Mayall and The Bluesbreakers - The 1982 Reunion Concert
DYEAR=1994
DGENRE=Blues
TTITLE0=Hard Times Again
TTITLE1=You Never Can Be Trusted
TTITLE2=Howlin' Moon
TTITLE3=Ridin' On The Santa Fe
TTITLE4=I Should Know Better
TTITLE5=My Time After Awhile
TTITLE6=She Can Do It
TTITLE7=Lookin' For Willie
TTITLE8=Room To Move
TTITLE9=Get Me Some Dollars
TTITLE10=Have You Heard
EXTD=
EXTT0=
EXTT1=
EXTT2=
EXTT3=
EXTT4=
EXTT5=
EXTT6=
EXTT7=
EXTT8=
EXTT9=
EXTT10=
PLAYORDER=
